<svg width="299" height="70" viewBox="0 0 299 70" fill="none" xmlns="http://www.w3.org/2000/svg">
<path d="M95.3751 48.1231H112.142V56.2289H85.8065V13.5513H95.3751V48.1231ZM2.55859 2.98828H66.6326V67.0153H2.55859V2.98828ZM8.223 61.3721H60.9525V8.62615H8.223V61.3721ZM19.4835 13.6364L30.6284 33.4115L18.2277 56.314H26.2146L34.48 40.6822L43.2814 56.314H51.4154L27.6176 13.6311L19.4835 13.6364ZM183.284 24.5717C181.243 24.5245 179.23 25.0511 177.467 26.0929C175.921 27.0549 174.581 28.3209 173.526 29.816H173.4C172.086 26.5876 168.96 24.5611 165.019 24.5611C159.764 24.5611 157.074 27.4705 155.76 29.4384H155.571L155.135 25.2579H147.379V56.2183H156.638V38.1824C156.608 37.3642 156.734 36.5478 157.011 35.7783C157.573 34.1827 159.013 32.2946 161.451 32.2946C164.457 32.2946 165.833 34.9539 165.833 38.8792V56.2289H175.092V38.1452C175.088 37.3061 175.213 36.4715 175.465 35.672C175.749 34.7151 176.326 33.8744 177.113 33.2712C177.899 32.6679 178.855 32.3334 179.842 32.3158C182.911 32.3158 184.35 34.9114 184.35 39.411V56.2502H193.604V37.9963C193.604 28.7523 189.164 24.5717 183.284 24.5717ZM255.072 12.3386H264.582V56.2023H256.385L255.949 51.6442H255.823C253.884 55.1279 250.19 56.8991 246.249 56.8991C238.993 56.8991 233.176 50.6336 233.176 41.0067C233.113 30.5607 239.555 24.5452 246.874 24.5452C250.631 24.5452 253.569 25.8748 254.945 28.0289H255.072V12.3386ZM255.072 38.3473C255.061 37.7763 255.019 37.2063 254.945 36.64C254.383 34.0444 252.318 31.8903 249.381 31.8903C245.062 31.8903 242.813 35.8156 242.813 40.6929C242.813 45.9478 245.377 49.2401 249.318 49.2401C250.626 49.255 251.898 48.8024 252.909 47.9618C253.92 47.1213 254.606 45.9466 254.846 44.6447C255.03 43.9206 255.115 43.1743 255.098 42.4268L255.072 38.3473ZM296.099 37.9005V56.2023H287.902L287.34 53.1015H287.151C285.143 55.5694 282.001 56.8991 278.36 56.8991C272.144 56.8991 268.439 52.3409 268.439 47.3998C268.439 39.3579 276.526 36.9963 286.457 36.9963V35.1401C286.457 33.4966 285.579 31.151 280.871 31.151C278.39 31.1857 275.943 31.7455 273.688 32.7945L270.641 27.2896C272.774 26.0876 276.978 24.5664 282.569 24.5664C292.799 24.5664 296.099 30.6458 296.099 37.9271V37.9005ZM286.772 42.6874C281.518 42.6874 277.256 43.0491 277.235 46.9424C277.235 49.4262 279.489 50.0964 281.623 50.0964C282.712 50.1047 283.777 49.7668 284.667 49.1304C285.557 48.494 286.227 47.5911 286.583 46.5488C286.712 46.0108 286.775 45.4589 286.772 44.9053V42.6874ZM229.498 40.1557C229.498 51.2931 222.583 56.8565 215.668 56.8565C212.147 56.8565 208.753 55.5268 206.593 51.8622H206.504L206.136 56.1598H198.412V12.3652H207.786V28.9225H207.907C209.698 26.2631 212.846 24.5611 217.044 24.5611C224.269 24.5611 229.576 30.6936 229.519 40.1823L229.498 40.1557ZM219.924 40.5386C219.924 35.7517 217.822 31.9329 213.445 31.9329C210.912 31.9329 208.569 33.8955 207.949 36.6772C207.824 37.2592 207.763 37.853 207.765 38.4484V43.0065C207.759 43.581 207.821 44.154 207.949 44.7138C208.221 45.9902 208.913 47.1354 209.911 47.9624C210.909 48.7893 212.155 49.2491 213.445 49.2667C217.48 49.2933 219.945 46.1286 219.945 40.5652L219.924 40.5386ZM143.207 37.8792V56.181H135.042L134.479 53.0802H134.29C132.278 55.5481 129.141 56.8778 125.499 56.8778C119.278 56.9097 115.6 52.3675 115.6 47.4264C115.6 39.3844 123.687 37.0229 133.618 37.0229V35.1401C133.618 33.4966 132.74 31.151 128.032 31.151C125.552 31.1851 123.107 31.745 120.854 32.7945L117.802 27.2896C119.94 26.0876 124.144 24.5664 129.735 24.5664C139.944 24.5664 143.244 30.6458 143.244 37.9271L143.207 37.8792ZM133.88 42.6661C128.626 42.6661 124.364 43.0278 124.343 46.9211C124.343 49.405 126.598 50.0751 128.731 50.0751C129.821 50.0842 130.886 49.7467 131.776 49.1102C132.666 48.4736 133.336 47.5702 133.691 46.5275C133.82 45.9895 133.883 45.4376 133.88 44.884V42.6661Z" fill="black"/>
</svg>
